<?xml version="1.0" encoding="UTF-8"?>
<svg width="25px" height="25px" viewBox="0 0 25 25" version="1.1" xmlns="http://www.w3.org/2000/svg" xmlns:xlink="http://www.w3.org/1999/xlink">
    <!-- Generator: Sketch 51.2 (57519) - http://www.bohemiancoding.com/sketch -->
    <title>github</title>
    <desc>Created with Sketch.</desc>
    <defs></defs>
    <g id="Page-1" stroke="none" stroke-width="1" fill="none" fill-rule="evenodd">
        <g id="github" fill="#FFFFFF" fill-rule="nonzero">
            <path d="M8.36189516,19.6270161 C8.36189516,19.7278226 8.24596774,19.8084677 8.09979839,19.8084677 C7.93346774,19.8235887 7.81754032,19.7429435 7.81754032,19.6270161 C7.81754032,19.5262097 7.93346774,19.4455645 8.0796371,19.4455645 C8.23084677,19.4304435 8.36189516,19.5110887 8.36189516,19.6270161 Z M6.79435484,19.4002016 C6.75907258,19.5010081 6.85987903,19.6169355 7.01108871,19.6471774 C7.1421371,19.6975806 7.29334677,19.6471774 7.32358871,19.546371 C7.35383065,19.4455645 7.25806452,19.3296371 7.10685484,19.2842742 C6.97580645,19.2489919 6.8296371,19.2993952 6.79435484,19.4002016 Z M9.02217742,19.3145161 C8.87600806,19.3497984 8.77520161,19.4455645 8.79032258,19.5614919 C8.80544355,19.6622984 8.93649194,19.7278226 9.08770161,19.6925403 C9.23387097,19.6572581 9.33467742,19.5614919 9.31955645,19.4606855 C9.30443548,19.3649194 9.16834677,19.2993952 9.02217742,19.3145161 Z M12.3387097,0 C5.34778226,0 0,5.30745968 0,12.2983871 C0,17.8881048 3.51814516,22.671371 8.54334677,24.3548387 C9.18850806,24.4707661 9.41532258,24.0725806 9.41532258,23.7449597 C9.41532258,23.4324597 9.40020161,21.7086694 9.40020161,20.6502016 C9.40020161,20.6502016 5.87197581,21.40625 5.13104839,19.1481855 C5.13104839,19.1481855 4.55645161,17.6814516 3.72983871,17.3034274 C3.72983871,17.3034274 2.57560484,16.5120968 3.81048387,16.5272177 C3.81048387,16.5272177 5.06552419,16.6280242 5.75604839,17.827621 C6.85987903,19.7731855 8.70967742,19.2137097 9.43044355,18.8810484 C9.54637097,18.0745968 9.87399194,17.515121 10.2368952,17.1824597 C7.41935484,16.8699597 4.5766129,16.4616935 4.5766129,11.6129032 C4.5766129,10.2268145 4.95967742,9.53125 5.76612903,8.64415323 C5.63508065,8.31653226 5.20665323,6.96572581 5.89717742,5.22177419 C6.95060484,4.89415323 9.375,6.58266129 9.375,6.58266129 C10.3830645,6.30040323 11.4667339,6.15423387 12.5403226,6.15423387 C13.6139113,6.15423387 14.6975806,6.30040323 15.7056452,6.58266129 C15.7056452,6.58266129 18.1300403,4.8891129 19.1834677,5.22177419 C19.8739919,6.97076613 19.4455645,8.31653226 19.3145161,8.64415323 C20.1209677,9.53629032 20.6149194,10.2318548 20.6149194,11.6129032 C20.6149194,16.4768145 17.6461694,16.8649194 14.828629,17.1824597 C15.2923387,17.5806452 15.6854839,18.3366935 15.6854839,19.5211694 C15.6854839,21.2197581 15.6703629,23.3215726 15.6703629,23.734879 C15.6703629,24.0625 15.9022177,24.4606855 16.5423387,24.3447581 C21.5826613,22.671371 25,17.8881048 25,12.2983871 C25,5.30745968 19.3296371,0 12.3387097,0 Z M4.89919355,17.3840726 C4.83366935,17.4344758 4.84879032,17.5504032 4.93447581,17.6461694 C5.01512097,17.7268145 5.13104839,17.7620968 5.19657258,17.6965726 C5.26209677,17.6461694 5.24697581,17.5302419 5.16129032,17.4344758 C5.08064516,17.3538306 4.96471774,17.3185484 4.89919355,17.3840726 Z M4.35483871,16.9758065 C4.31955645,17.0413306 4.36995968,17.1219758 4.47076613,17.172379 C4.55141129,17.2227823 4.65221774,17.2076613 4.6875,17.1370968 C4.72278226,17.0715726 4.67237903,16.9909274 4.57157258,16.9405242 C4.47076613,16.9102823 4.39012097,16.9254032 4.35483871,16.9758065 Z M5.98790323,18.7701613 C5.90725806,18.8356855 5.9375,18.9868952 6.05342742,19.0826613 C6.16935484,19.1985887 6.31552419,19.2137097 6.38104839,19.1330645 C6.44657258,19.0675403 6.41633065,18.9163306 6.31552419,18.8205645 C6.2046371,18.7046371 6.05342742,18.6895161 5.98790323,18.7701613 Z M5.41330645,18.0292339 C5.33266129,18.0796371 5.33266129,18.2106855 5.41330645,18.3266129 C5.49395161,18.4425403 5.63004032,18.4929435 5.69556452,18.4425403 C5.77620968,18.3770161 5.77620968,18.2459677 5.69556452,18.1300403 C5.625,18.0141129 5.49395161,17.9637097 5.41330645,18.0292339 Z" id="Shape"></path>
        </g>
    </g>
</svg>