<?xml version="1.0" encoding="UTF-8" standalone="no"?>
<svg width="16px" height="23px" viewBox="0 0 16 23" version="1.1" xmlns="http://www.w3.org/2000/svg" xmlns:xlink="http://www.w3.org/1999/xlink">
    <!-- Generator: Sketch 44.1 (41455) - http://www.bohemiancoding.com/sketch -->
    <title>icon/halfmoon</title>
    <desc>Created with Sketch.</desc>
    <defs></defs>
    <g id="Symbols" stroke="none" stroke-width="1" fill="none" fill-rule="evenodd">
        <g id="icon/halfmoon" fill="#6A86FE">
            <g id="HALF-MON">
                <path d="M13.857662,22.821507 C12.8041972,22.821507 11.9467183,21.9643521 11.9467183,20.9105634 C11.9467183,19.8570986 12.8041972,18.9999437 13.857662,18.9999437 C14.9111268,18.9999437 15.7682817,19.8570986 15.7682817,20.9105634 C15.7682817,21.9643521 14.9111268,22.821507 13.857662,22.821507 L13.857662,22.821507 Z M13.857662,20.1774789 C13.4533803,20.1774789 13.1245775,20.5066056 13.1245775,20.9105634 C13.1245775,21.3148451 13.4533803,21.6439718 13.857662,21.6439718 C14.2619437,21.6439718 14.5907465,21.3148451 14.5907465,20.9105634 C14.5907465,20.5066056 14.2619437,20.1774789 13.857662,20.1774789 L13.857662,20.1774789 Z" id="Fill-1"></path>
                <path d="M6.9074507,1.96374648 C6.37197183,1.96374648 5.93626761,1.52771831 5.93626761,0.991915493 C5.93626761,0.456112676 6.37197183,0.0204084507 6.9074507,0.0204084507 C7.44325352,0.0204084507 7.87928169,0.456112676 7.87928169,0.991915493 C7.87928169,1.52771831 7.44325352,1.96374648 6.9074507,1.96374648 L6.9074507,1.96374648 Z M6.9074507,0.609338028 C6.69623944,0.609338028 6.52487324,0.780704225 6.52487324,0.991915493 C6.52487324,1.20280282 6.69623944,1.3748169 6.9074507,1.3748169 C7.11833803,1.3748169 7.29035211,1.20280282 7.29035211,0.991915493 C7.29035211,0.780704225 7.11833803,0.609338028 6.9074507,0.609338028 L6.9074507,0.609338028 Z" id="Fill-2"></path>
                <path d="M8.46788732,19.9571972 C3.97673239,19.9571972 0.322971831,16.3034366 0.322971831,11.8119577 C0.322971831,7.32047887 3.97673239,3.66639437 8.46788732,3.66639437 C9.4938169,3.66639437 10.5035493,3.86076056 11.4695493,4.24430986 C11.7879859,4.37097183 12.0050282,4.67061972 12.0251127,5.01270423 C12.0458451,5.35511268 11.8657324,5.67840845 11.5644648,5.842 C9.50191549,6.95992958 8.22007042,9.11059155 8.22007042,11.4536761 C8.22007042,14.081831 9.80188732,16.4080704 12.2499296,17.3795775 C12.5683662,17.5059155 12.7850845,17.8055634 12.805493,18.1476479 C12.8259014,18.4900563 12.6461127,18.8133521 12.3448451,18.9769437 C11.1618028,19.6183521 9.821,19.9571972 8.46788732,19.9571972 L8.46788732,19.9571972 Z M8.46788732,5.43285915 C4.95050704,5.43285915 2.08943662,8.29457746 2.08943662,11.8119577 C2.08943662,15.329338 4.95050704,18.1910563 8.46788732,18.1910563 C8.92238028,18.1910563 9.37492958,18.1424648 9.81646479,18.0469014 C7.72670423,16.5415352 6.45360563,14.1194085 6.45360563,11.4536761 C6.45360563,9.1465493 7.42673239,6.98552113 9.07916901,5.46266197 C8.87670423,5.44290141 8.67261972,5.43285915 8.46788732,5.43285915 L8.46788732,5.43285915 Z" id="Fill-3"></path>
                <path d="M12.7086338,10.6282676 C12.7086338,11.0617042 12.3571549,11.4131831 11.9237183,11.4131831 C11.4899577,11.4131831 11.1384789,11.0617042 11.1384789,10.6282676 C11.1384789,10.194507 11.4899577,9.84302817 11.9237183,9.84302817 C12.3571549,9.84302817 12.7086338,10.194507 12.7086338,10.6282676" id="Fill-4"></path>
            </g>
        </g>
    </g>
</svg>