<?xml version="1.0" encoding="UTF-8"?>
<svg width="25px" height="25px" viewBox="0 0 25 25" version="1.1" xmlns="http://www.w3.org/2000/svg" xmlns:xlink="http://www.w3.org/1999/xlink">
    <!-- Generator: Sketch 51.2 (57519) - http://www.bohemiancoding.com/sketch -->
    <title>Shape</title>
    <desc>Created with Sketch.</desc>
    <defs></defs>
    <g id="Page-1" stroke="none" stroke-width="1" fill="none" fill-rule="evenodd">
        <g id="linkedin" fill="#FFFFFF" fill-rule="nonzero">
            <path d="M5.59584914,24.9944209 L0.412854274,24.9944209 L0.412854274,8.30729748 L5.59584914,8.30729748 L5.59584914,24.9944209 Z M3.00156215,6.03101986 C1.34456595,6.03101986 0,4.65855836 0,3.00156215 C0,1.34456595 1.34456595,0 3.00156215,0 C4.65855836,0 6.0031243,1.34456595 6.0031243,3.00156215 C6.0031243,4.65855836 4.65855836,6.03101986 3.00156215,6.03101986 Z M24.9944209,24.9944209 L19.8225842,24.9944209 L19.8225842,16.8712341 C19.8225842,14.9352823 19.7835305,12.4525775 17.1278732,12.4525775 C14.4331622,12.4525775 14.020308,14.5559027 14.020308,16.7317563 L14.020308,24.9944209 L8.84289221,24.9944209 L8.84289221,8.30729748 L13.8138808,8.30729748 L13.8138808,10.5835751 L13.8864093,10.5835751 C14.5782191,9.27248382 16.26869,7.88886409 18.7904486,7.88886409 C24.0348137,7.88886409 25,11.3423343 25,15.8279402 L25,24.9944209 L24.9944209,24.9944209 Z" id="Shape"></path>
        </g>
    </g>
</svg>