<?xml version="1.0" encoding="UTF-8" standalone="no"?>
<svg width="16px" height="23px" viewBox="0 0 16 23" version="1.1" xmlns="http://www.w3.org/2000/svg" xmlns:xlink="http://www.w3.org/1999/xlink">
    <!-- Generator: Sketch 44.1 (41455) - http://www.bohemiancoding.com/sketch -->
    <title>icon/rocket</title>
    <desc>Created with Sketch.</desc>
    <defs></defs>
    <g id="Symbols" stroke="none" stroke-width="1" fill="none" fill-rule="evenodd">
        <g id="icon/rocket" fill="#6A86FE">
            <g id="ROCKET">
                <path d="M9.42495122,6.85932927 C9.42495122,6.10738728 8.81553793,5.49784146 8.0637439,5.49784146 C7.31194988,5.49784146 6.70253659,6.10738728 6.70253659,6.85932927 C6.70253659,7.6110239 7.31198301,8.22053659 8.0637439,8.22053659 C8.8155048,8.22053659 9.42495122,7.6110239 9.42495122,6.85932927 Z M10.2664146,6.85932927 C10.2664146,8.07573083 9.28025269,9.062 8.0637439,9.062 C6.84723511,9.062 5.86107317,8.07573083 5.86107317,6.85932927 C5.86107317,5.64270082 6.8471815,4.65637805 8.0637439,4.65637805 C9.2803063,4.65637805 10.2664146,5.64270082 10.2664146,6.85932927 Z" id="Stroke-1" fill-rule="nonzero"></path>
                <path d="M7.98380488,19.9555854 C5.25886585,19.9555854 3.20429268,15.709 3.20429268,10.0773659 C3.20429268,4.4460122 5.25886585,0.199426829 7.98380488,0.199426829 C10.7087439,0.199426829 12.7635976,4.4460122 12.7635976,10.0773659 C12.7635976,15.709 10.7087439,19.9555854 7.98380488,19.9555854 L7.98380488,19.9555854 Z M7.98380488,1.72892683 C6.44953659,1.72892683 4.73379268,5.2992561 4.73379268,10.0773659 C4.73379268,14.8557561 6.44953659,18.4260854 7.98380488,18.4260854 C9.52115854,18.4260854 11.2340976,14.9976829 11.2340976,10.0773659 C11.2340976,5.15732927 9.52115854,1.72892683 7.98380488,1.72892683 L7.98380488,1.72892683 Z" id="Fill-2"></path>
                <path d="M1.68965854,19.1340366 C1.61112195,19.1340366 1.53090244,19.1259024 1.44871951,19.1096341 C0.819304878,18.9836951 0.358463415,18.3949512 0.151182927,17.4536341 C-0.0249634146,16.6539634 -0.00925609756,15.6517805 0.1955,14.6324878 C0.550597561,12.8651341 1.52781707,10.9631463 2.83685366,10.9631463 C2.91847561,10.9631463 2.99953659,10.9712805 3.08031707,10.9872683 C3.55462195,11.0823537 3.99919512,11.476439 4.301,12.0685488 C4.70967073,12.8710244 4.92284146,14.214 4.2965122,15.5766098 C4.18010976,15.8304512 4.06959756,16.075878 3.96441463,16.3095244 C3.20064634,18.010122 2.69576829,19.1340366 1.68965854,19.1340366 L1.68965854,19.1340366 Z M2.87668293,11.9869268 C2.38667073,11.9869268 1.54913415,13.0707317 1.19515854,14.8335976 C1.01985366,15.7045122 1.00246341,16.5793537 1.14691463,17.2340122 C1.27902439,17.8325732 1.50004878,18.0799634 1.64926829,18.1096951 L1.68965854,18.1141829 C2.03606098,18.1141829 2.56646341,16.9333293 3.03431707,15.8915976 C3.14090244,15.6551463 3.25197561,15.4077561 3.37062195,15.1502683 C3.84436585,14.1189146 3.69262195,13.120939 3.3925,12.5310732 C3.21971951,12.1914024 3.00991463,12.0132927 2.8794878,11.9869268 L2.87668293,11.9869268 L2.87668293,11.9869268 Z" id="Fill-3"></path>
                <path d="M14.031122,19.157878 C12.9467561,19.157878 12.4135488,17.7641341 11.7384146,16.0001463 L11.5342195,15.4705854 C10.9861463,14.0580488 11.2722439,12.7243293 11.7235488,11.9470976 C12.0539634,11.3768659 12.5002195,11.0234512 12.9781707,10.9519268 C13.0387561,10.9426707 13.1001829,10.9381829 13.1613293,10.9381829 C14.4409146,10.9381829 15.3962561,12.8483049 15.6789878,14.7351463 C15.8335366,15.7634146 15.7995976,16.7644756 15.5839024,17.5546098 C15.330622,18.4852683 14.8411707,19.0498902 14.2064268,19.1449756 C14.1472439,19.1539512 14.0889024,19.157878 14.031122,19.157878 L14.031122,19.157878 Z M13.1613293,11.9580366 C13.0014512,11.9793537 12.7899634,12.1411951 12.605122,12.4587073 C12.2730244,13.0309024 12.0674268,14.0257927 12.4850732,15.1011829 L12.6903902,15.6357927 C13.0945732,16.6918293 13.6482561,18.1383049 14.031122,18.1383049 L14.0549634,18.136061 C14.2058659,18.1139024 14.4392317,17.8777317 14.6002317,17.2861829 C14.776939,16.6396585 14.8024634,15.7648171 14.6703537,14.8866098 C14.398561,13.0721341 13.6084268,11.9580366 13.1613293,11.9580366 L13.1613293,11.9580366 Z" id="Fill-4"></path>
                <polygon id="Fill-5" points="4.4022561 13.1388902 11.9221341 13.1388902 11.9221341 14.1584634 4.4022561 14.1584634"></polygon>
                <path d="M7.60767073,20.6340854 C7.60767073,20.825939 7.76306098,20.9813293 7.95491463,20.9813293 C8.1464878,20.9813293 8.30215854,20.825939 8.30215854,20.6340854 C8.30215854,20.4425122 8.14676829,20.287122 7.95491463,20.287122 C7.76306098,20.287122 7.60767073,20.4425122 7.60767073,20.6340854" id="Fill-6"></path>
                <path d="M8.12853659,21.5888659 C8.12853659,21.7807195 8.28392683,21.9361098 8.4755,21.9361098 C8.66735366,21.9361098 8.8227439,21.7807195 8.8227439,21.5888659 C8.8227439,21.3972927 8.66735366,21.2419024 8.4755,21.2419024 C8.28392683,21.2419024 8.12853659,21.3972927 8.12853659,21.5888659" id="Fill-7"></path>
                <path d="M7.521,22.5436463 C7.521,22.7355 7.67639024,22.8908902 7.86796341,22.8908902 C8.05981707,22.8908902 8.21520732,22.7355 8.21520732,22.5436463 C8.21520732,22.3520732 8.05981707,22.1964024 7.86796341,22.1964024 C7.67639024,22.1964024 7.521,22.3520732 7.521,22.5436463" id="Fill-8"></path>
                <path d="M8.64912195,22.5436463 C8.64912195,22.7355 8.8045122,22.8908902 8.99636585,22.8908902 C9.18821951,22.8908902 9.34360976,22.7355 9.34360976,22.5436463 C9.34360976,22.3520732 9.18793902,22.1964024 8.99636585,22.1964024 C8.8045122,22.1964024 8.64912195,22.3520732 8.64912195,22.5436463" id="Fill-9"></path>
                <path d="M6.47926829,22.5436463 C6.47926829,22.7355 6.63465854,22.8908902 6.8265122,22.8908902 C7.01836585,22.8908902 7.1737561,22.7355 7.1737561,22.5436463 C7.1737561,22.3520732 7.01808537,22.1964024 6.8265122,22.1964024 C6.63465854,22.1964024 6.47926829,22.3520732 6.47926829,22.5436463" id="Fill-10"></path>
                <path d="M7.69434146,21.5888659 C7.69434146,21.3972927 7.53895122,21.241622 7.34737805,21.2419024 C7.15552439,21.2419024 7.00013415,21.3970122 7.00013415,21.5888659 C7.00013415,21.7807195 7.15552439,21.9361098 7.34737805,21.9361098 C7.53895122,21.9361098 7.69434146,21.7807195 7.69434146,21.5888659" id="Fill-11"></path>
            </g>
        </g>
    </g>
</svg>