<?xml version="1.0" encoding="UTF-8" standalone="no"?>
<svg width="18px" height="23px" viewBox="0 0 18 23" version="1.1" xmlns="http://www.w3.org/2000/svg" xmlns:xlink="http://www.w3.org/1999/xlink">
    <!-- Generator: Sketch 44.1 (41455) - http://www.bohemiancoding.com/sketch -->
    <title>icon/spaceman</title>
    <desc>Created with Sketch.</desc>
    <defs></defs>
    <g id="Symbols" stroke="none" stroke-width="1" fill="none" fill-rule="evenodd">
        <g id="icon/spaceman" fill="#6A86FE">
            <g id="COSMONOT">
                <path d="M17.4396667,1.47933333 C17.4396667,2.23066667 16.8306667,2.83966667 16.0793333,2.83966667 C15.328,2.83966667 14.719,2.23066667 14.719,1.47933333 C14.719,0.728 15.328,0.119 16.0793333,0.119 C16.8306667,0.119 17.4396667,0.728 17.4396667,1.47933333" id="Fill-1"></path>
                <path d="M8.838,19.3176667 C4.21633333,19.3176667 0.456666667,15.5576667 0.456666667,10.936 C0.456666667,6.31466667 4.21633333,2.555 8.838,2.555 C13.4596667,2.555 17.219,6.31466667 17.219,10.936 C17.219,15.5576667 13.4596667,19.3176667 8.838,19.3176667 L8.838,19.3176667 Z M8.838,4.37266667 C5.21866667,4.37266667 2.27433333,7.317 2.27433333,10.936 C2.27433333,14.5553333 5.21866667,17.5 8.838,17.5 C12.4573333,17.5 15.4016667,14.5553333 15.4016667,10.936 C15.4016667,7.317 12.4573333,4.37266667 8.838,4.37266667 L8.838,4.37266667 Z" id="Fill-2"></path>
                <path d="M8.68666667,22.6003333 C3.67333333,22.6003333 0.305333333,19.1303333 0.305333333,13.9653333 C0.305333333,13.4633333 0.712333333,13.0566667 1.214,13.0566667 C1.716,13.0566667 2.123,13.4633333 2.123,13.9653333 C2.123,18.992 5.51333333,20.7826667 8.68666667,20.7826667 C9.26566667,20.7826667 9.82966667,20.725 10.3623333,20.611 C10.8503333,20.5083333 11.336,20.8186667 11.4406667,21.3096667 C11.5456667,21.8006667 11.233,22.2833333 10.742,22.3883333 C10.0846667,22.529 9.393,22.6003333 8.68666667,22.6003333" id="Fill-3"></path>
                <path d="M14.063,20.557 C13.83,20.557 13.597,20.4676667 13.4193333,20.2896667 C13.065,19.9343333 13.0663333,19.3586667 13.4213333,19.0046667 C14.6176667,17.8116667 15.25,16.0693333 15.25,13.9653333 C15.25,13.4633333 15.657,13.0566667 16.159,13.0566667 C16.6606667,13.0566667 17.0676667,13.4633333 17.0676667,13.9653333 C17.0676667,16.563 16.2506667,18.7503333 14.705,20.2913333 C14.5276667,20.4683333 14.295,20.557 14.063,20.557" id="Fill-4"></path>
                <polygon id="Fill-5" points="15.478 2.85233333 16.6896667 2.85233333 16.6896667 7.93966667 15.478 7.93966667"></polygon>
                <path d="M12.3803333,22.682 C11.6903333,22.682 11.0626667,22.3306667 10.7023333,21.743 C10.428,21.2953333 10.3436667,20.7673333 10.467,20.257 C10.5893333,19.746 10.903,19.3136667 11.351,19.0393333 C11.6603333,18.8493333 12.0153333,18.749 12.3773333,18.749 C13.068,18.749 13.695,19.0996667 14.055,19.6876667 C14.3293333,20.1353333 14.4133333,20.663 14.291,21.1736667 C14.1683333,21.6846667 13.8543333,22.117 13.4063333,22.3916667 C13.097,22.5813333 12.742,22.682 12.3803333,22.682 L12.3803333,22.682 Z M12.3773333,19.9606667 C12.239,19.9606667 12.103,19.9993333 11.984,20.0723333 C11.8123333,20.1776667 11.6916667,20.3436667 11.645,20.5393333 C11.5983333,20.7353333 11.63,20.938 11.7353333,21.1093333 C11.9456667,21.452 12.4246667,21.571 12.7733333,21.3586667 C12.945,21.2533333 13.0656667,21.0873333 13.1123333,20.8913333 C13.1596667,20.6953333 13.127,20.493 13.0216667,20.321 C12.8833333,20.0953333 12.643,19.9606667 12.3773333,19.9606667 L12.3773333,19.9606667 Z" id="Fill-6"></path>
                <path d="M13.946,11.2366667 C13.611,11.2366667 13.34,10.9653333 13.34,10.6306667 C13.34,8.221 11.3793333,6.26 8.96933333,6.26 C8.63433333,6.26 8.36333333,5.98866667 8.36333333,5.654 C8.36333333,5.31966667 8.63433333,5.04833333 8.96933333,5.04833333 C12.0473333,5.04833333 14.552,7.55266667 14.552,10.6306667 C14.552,10.9653333 14.281,11.2366667 13.946,11.2366667" id="Fill-7"></path>
                <polygon id="Fill-8" points="1.36566667 12.148 16.3103333 12.148 16.3103333 13.3596667 1.36566667 13.3596667"></polygon>
            </g>
        </g>
    </g>
</svg>