<?xml version="1.0" encoding="UTF-8" standalone="no"?>
<svg width="23px" height="23px" viewBox="0 0 23 23" version="1.1" xmlns="http://www.w3.org/2000/svg" xmlns:xlink="http://www.w3.org/1999/xlink">
    <!-- Generator: Sketch 44.1 (41455) - http://www.bohemiancoding.com/sketch -->
    <title>icon/telescope</title>
    <desc>Created with Sketch.</desc>
    <defs></defs>
    <g id="Symbols" stroke="none" stroke-width="1" fill="none" fill-rule="evenodd">
        <g id="icon/telescope" fill="#6A86FE">
            <g id="TELESKOP">
                <path d="M8.99957143,16.0868571 C8.63777778,16.0868571 8.28949206,15.8856984 8.11973016,15.5385079 L4.81795238,8.78344444 C4.70368254,8.55015873 4.68725397,8.28073016 4.77122222,8.03539683 C4.85592063,7.79006349 5.03444444,7.5881746 5.26773016,7.47390476 L15.3147143,2.56395238 C15.8006349,2.32701587 16.3862222,2.52707937 16.6231587,3.01373016 L19.9245714,9.76879365 C20.1615079,10.2543492 19.9607143,10.8403016 19.4747937,11.0776032 L9.42853968,15.9875556 C9.2901746,16.0550952 9.14377778,16.0868571 8.99957143,16.0868571 L8.99957143,16.0868571 Z M7.0062381,8.80315873 L9.44825397,13.7996349 L17.7366508,9.74834921 L15.2942698,4.75187302 L7.0062381,8.80315873 L7.0062381,8.80315873 Z" id="Fill-1"></path>
                <path d="M2.8165873,17.1068889 C2.70961905,17.1068889 2.60192063,17.089 2.49860317,17.0539524 C2.25363492,16.969254 2.05138095,16.7907302 1.93747619,16.5578095 L0.215396825,13.0333333 C-0.0215396825,12.5477778 0.179253968,11.9618254 0.665174603,11.7248889 L5.90661905,9.16312698 C6.3921746,8.9258254 6.97885714,9.12661905 7.21506349,9.6121746 L8.93787302,13.1366508 C9.05177778,13.3695714 9.06857143,13.6393651 8.9842381,13.8843333 C8.89953968,14.1296667 8.72138095,14.3315556 8.48809524,14.4458254 L3.24592063,17.0075873 C3.11120635,17.0736667 2.96444444,17.1068889 2.8165873,17.1068889 L2.8165873,17.1068889 Z M2.40331746,13.0537778 L3.26636508,14.8196667 L6.7495873,13.1169365 L5.88690476,11.3506825 L2.40331746,13.0537778 L2.40331746,13.0537778 Z" id="Fill-2"></path>
                <path d="M20.5598095,13.5294762 C20.1980159,13.5294762 19.8493651,13.3283175 19.6799683,12.9803968 L14.0818413,1.52603175 C13.8449048,1.04047619 14.0453333,0.45452381 14.531619,0.217587302 C15.0171746,-0.0193492063 15.603127,0.181079365 15.8400635,0.667365079 L21.4381905,12.1217302 C21.6754921,12.6069206 21.4746984,13.1932381 20.9884127,13.4301746 C20.8504127,13.4977143 20.7036508,13.5294762 20.5598095,13.5294762" id="Fill-3"></path>
                <path d="M7.80065079,22.9313651 C7.65242857,22.9313651 7.50128571,22.8974127 7.35963492,22.8262222 C6.87736508,22.5819841 6.68387302,21.9942063 6.92774603,21.5112063 L10.9487302,13.5524762 C11.191873,13.0702063 11.7825714,12.8778095 12.263381,13.1205873 C12.7456508,13.3644603 12.9387778,13.9526032 12.6956349,14.4356032 L8.67465079,22.3943333 C8.50269841,22.7349524 8.15806349,22.9313651 7.80065079,22.9313651" id="Fill-4"></path>
                <path d="M15.2541111,22.1646984 C14.8156508,22.1646984 14.416254,21.868619 14.3052698,21.4239524 L12.3436984,13.5780317 C12.2126349,13.0537778 12.5309841,12.5222222 13.0556032,12.3911587 C13.5798571,12.2611905 14.1117778,12.5784444 14.2424762,13.1026984 L16.2040476,20.948619 C16.3351111,21.472873 16.0167619,22.0040635 15.4921429,22.1354921 C15.4125556,22.1552063 15.3322381,22.1646984 15.2541111,22.1646984" id="Fill-5"></path>
            </g>
        </g>
    </g>
</svg>