<?xml version="1.0" encoding="UTF-8" standalone="no"?>
<svg width="23px" height="25px" viewBox="0 0 23 25" version="1.1" xmlns="http://www.w3.org/2000/svg" xmlns:xlink="http://www.w3.org/1999/xlink">
    <!-- Generator: Sketch 44.1 (41455) - http://www.bohemiancoding.com/sketch -->
    <title>icon/twinkle</title>
    <desc>Created with Sketch.</desc>
    <defs></defs>
    <g id="Symbols" stroke="none" stroke-width="1" fill="none" fill-rule="evenodd">
        <g id="icon/twinkle" fill="#6A86FE">
            <g id="STARS">
                <path d="M1.1515082,17.5934918 C0.583672131,17.5934918 0.123295082,17.1331148 0.123295082,16.5656557 C0.123295082,15.9978197 0.583672131,15.5374426 1.1515082,15.5374426 C4.15583607,15.5374426 6.6002459,13.0934098 6.6002459,10.0883279 C6.6002459,9.5204918 7.06062295,9.06011475 7.62845902,9.06011475 C8.19629508,9.06011475 8.65629508,9.5204918 8.65629508,10.0883279 C8.65629508,14.2264426 5.28962295,17.5934918 1.1515082,17.5934918" id="Fill-1"></path>
                <path d="M14.1057869,17.5934918 C9.96729508,17.5934918 6.6002459,14.2264426 6.6002459,10.0883279 C6.6002459,9.5204918 7.06062295,9.06011475 7.62845902,9.06011475 C8.19629508,9.06011475 8.65629508,9.5204918 8.65629508,10.0883279 C8.65629508,13.0934098 11.101082,15.5374426 14.1057869,15.5374426 C14.673623,15.5374426 15.133623,15.9978197 15.133623,16.5656557 C15.133623,17.1331148 14.673623,17.5934918 14.1057869,17.5934918" id="Fill-2"></path>
                <path d="M7.62845902,24.0700656 C7.06062295,24.0700656 6.6002459,23.6096885 6.6002459,23.0422295 C6.6002459,18.9041148 9.96729508,15.5374426 14.1057869,15.5374426 C14.673623,15.5374426 15.133623,15.9978197 15.133623,16.5656557 C15.133623,17.1331148 14.673623,17.5934918 14.1057869,17.5934918 C11.101082,17.5934918 8.65629508,20.0375246 8.65629508,23.0422295 C8.65629508,23.6096885 8.19629508,24.0700656 7.62845902,24.0700656" id="Fill-3"></path>
                <path d="M7.62845902,24.0700656 C7.06062295,24.0700656 6.6002459,23.6096885 6.6002459,23.0422295 C6.6002459,20.0375246 4.15583607,17.5934918 1.1515082,17.5934918 C0.583672131,17.5934918 0.123295082,17.1331148 0.123295082,16.5656557 C0.123295082,15.9978197 0.583672131,15.5374426 1.1515082,15.5374426 C5.28962295,15.5374426 8.65629508,18.9041148 8.65629508,23.0422295 C8.65629508,23.6096885 8.19629508,24.0700656 7.62845902,24.0700656" id="Fill-4"></path>
                <path d="M12.2963279,6.33404918 C11.9177705,6.33404918 11.6108525,6.0275082 11.6108525,5.64895082 C11.6108525,5.27001639 11.9177705,4.96347541 12.2963279,4.96347541 C14.6302623,4.96347541 16.529082,3.06465574 16.529082,0.730344262 C16.529082,0.351409836 16.836,0.0448688525 17.2145574,0.0448688525 C17.5931148,0.0448688525 17.9000328,0.351409836 17.9000328,0.730344262 C17.9000328,3.8202623 15.3862459,6.33404918 12.2963279,6.33404918" id="Fill-5"></path>
                <path d="M22.1331639,6.33404918 C19.0428689,6.33404918 16.529082,3.8202623 16.529082,0.730344262 C16.529082,0.351409836 16.836,0.0448688525 17.2145574,0.0448688525 C17.5931148,0.0448688525 17.9000328,0.351409836 17.9000328,0.730344262 C17.9000328,3.06465574 19.7988525,4.96347541 22.1331639,4.96347541 C22.5117213,4.96347541 22.8182623,5.27001639 22.8182623,5.64895082 C22.8182623,6.0275082 22.5117213,6.33404918 22.1331639,6.33404918" id="Fill-6"></path>
                <path d="M17.2145574,11.2526557 C16.836,11.2526557 16.529082,10.9461148 16.529082,10.5675574 C16.529082,7.4772623 19.0428689,4.96347541 22.1331639,4.96347541 C22.5117213,4.96347541 22.8182623,5.27001639 22.8182623,5.64895082 C22.8182623,6.0275082 22.5117213,6.33404918 22.1331639,6.33404918 C19.7988525,6.33404918 17.9000328,8.23286885 17.9000328,10.5675574 C17.9000328,10.9461148 17.5931148,11.2526557 17.2145574,11.2526557" id="Fill-7"></path>
                <path d="M17.2145574,11.2526557 C16.836,11.2526557 16.529082,10.9461148 16.529082,10.5675574 C16.529082,8.23286885 14.6302623,6.33404918 12.2963279,6.33404918 C11.9177705,6.33404918 11.6108525,6.0275082 11.6108525,5.64895082 C11.6108525,5.27001639 11.9177705,4.96347541 12.2963279,4.96347541 C15.3862459,4.96347541 17.9000328,7.4772623 17.9000328,10.5675574 C17.9000328,10.9461148 17.5931148,11.2526557 17.2145574,11.2526557" id="Fill-8"></path>
            </g>
        </g>
    </g>
</svg>