<?xml version="1.0" encoding="UTF-8"?>
<svg width="25px" height="25px" viewBox="0 0 25 25" version="1.1" xmlns="http://www.w3.org/2000/svg" xmlns:xlink="http://www.w3.org/1999/xlink">
    <!-- Generator: Sketch 51.2 (57519) - http://www.bohemiancoding.com/sketch -->
    <title>Shape</title>
    <desc>Created with Sketch.</desc>
    <defs></defs>
    <g id="Page-1" stroke="none" stroke-width="1" fill="none" fill-rule="evenodd">
        <g id="twitter" fill="#FFFFFF" fill-rule="nonzero">
            <path d="M22.4301758,6.23293269 C22.4460449,6.50625 22.4460449,6.7796274 22.4460449,7.05294471 C22.4460449,15.3894832 17.290625,24.9951322 7.86801758,24.9951322 C4.96508789,24.9951322 2.2684082,23.9603365 0,22.1642428 C0.412451172,22.2227764 0.808984375,22.2423077 1.23730469,22.2423077 C3.63256836,22.2423077 5.83754883,21.2466346 7.59833984,19.5480769 C5.34580078,19.4894832 3.45810547,17.6737981 2.80771484,15.1747596 C3.125,15.2332933 3.44223633,15.2723558 3.77539062,15.2723558 C4.23540039,15.2723558 4.69545898,15.1942308 5.12373047,15.0576322 C2.77602539,14.471875 1.01518555,11.9338341 1.01518555,8.86862981 L1.01518555,8.7905649 C1.69726563,9.25913462 2.49047852,9.55198317 3.33115234,9.59098558 C1.95107422,8.45859375 1.04692383,6.52578125 1.04692383,4.3391226 C1.04692383,3.16772837 1.30068359,2.09393029 1.74487305,1.15679087 C4.26708984,4.98341346 8.05834961,7.48239183 12.3095703,7.75576923 C12.2302734,7.28719952 12.182666,6.79915865 12.182666,6.31105769 C12.182666,2.83581731 14.4669434,0.00492788462 17.3063965,0.00492788462 C18.7816406,0.00492788462 20.1141113,0.766346154 21.0500488,1.99633413 C22.2080078,1.72301683 23.3184082,1.19585337 24.3019531,0.473497596 C23.9211914,1.93780048 23.112207,3.16778846 22.0494141,3.94867788 C23.0805176,3.81207933 24.0798828,3.46057692 24.9999023,2.97253606 C24.3020508,4.22199519 23.429541,5.33479567 22.4301758,6.23293269 Z" id="Shape"></path>
        </g>
    </g>
</svg>