<?xml version="1.0" encoding="UTF-8" standalone="no"?>
<svg width="22px" height="23px" viewBox="0 0 22 23" version="1.1" xmlns="http://www.w3.org/2000/svg" xmlns:xlink="http://www.w3.org/1999/xlink">
    <!-- Generator: Sketch 44.1 (41455) - http://www.bohemiancoding.com/sketch -->
    <title>icon/ufo</title>
    <desc>Created with Sketch.</desc>
    <defs></defs>
    <g id="Symbols" stroke="none" stroke-width="1" fill="none" fill-rule="evenodd">
        <g id="icon/ufo" fill="#6A86FE">
            <g id="UFO">
                <path d="M18.847,0.818333333 C18.847,1.26433333 18.4853333,1.626 18.0393333,1.626 C17.593,1.626 17.2313333,1.26433333 17.2313333,0.818333333 C17.2313333,0.372 17.593,0.0103333333 18.0393333,0.0103333333 C18.4853333,0.0103333333 18.847,0.372 18.847,0.818333333" id="Fill-1"></path>
                <path d="M19.6566667,10.188 L2.894,10.188 L2.894,9.27933333 C2.894,4.65766667 6.65366667,0.898 11.2753333,0.898 C15.897,0.898 19.6566667,4.65766667 19.6566667,9.27933333 L19.6566667,10.188 L19.6566667,10.188 Z M4.77433333,8.37033333 L17.7763333,8.37033333 C17.3323333,5.18 14.5863333,2.71566667 11.2753333,2.71566667 C7.96433333,2.71566667 5.21833333,5.18 4.77433333,8.37033333 L4.77433333,8.37033333 Z" id="Fill-2"></path>
                <path d="M15.5373333,8.12833333 C15.2023333,8.12833333 14.9313333,7.85733333 14.9313333,7.52266667 C14.9313333,6.045 13.7296667,4.84333333 12.2523333,4.84333333 C11.9173333,4.84333333 11.6463333,4.57233333 11.6463333,4.23766667 C11.6463333,3.90266667 11.9173333,3.63166667 12.2523333,3.63166667 C14.3976667,3.63166667 16.1433333,5.377 16.1433333,7.52266667 C16.1433333,7.85733333 15.8723333,8.12833333 15.5373333,8.12833333" id="Fill-3"></path>
                <path d="M20.7683333,13.0116667 C20.4773333,13.0116667 20.191,12.872 20.0153333,12.6123333 L18.1033333,9.78866667 C17.8223333,9.37333333 17.9306667,8.80833333 18.3466667,8.52666667 C18.7613333,8.245 19.327,8.35333333 19.6086667,8.76966667 L21.5203333,11.5933333 C21.8013333,12.0086667 21.693,12.5736667 21.2773333,12.8553333 C21.121,12.9613333 20.944,13.0116667 20.7683333,13.0116667" id="Fill-4"></path>
                <path d="M1.285,13.0116667 C1.06966667,13.0116667 0.853666667,12.936 0.680666667,12.7813333 C0.306,12.447 0.273,11.8726667 0.607,11.498 L3.12433333,8.67466667 C3.45866667,8.30066667 4.03333333,8.267 4.40733333,8.60066667 C4.78233333,8.935 4.815,9.50933333 4.481,9.884 L1.96366667,12.7073333 C1.78433333,12.9086667 1.535,13.0116667 1.285,13.0116667" id="Fill-5"></path>
                <path d="M0.847666667,13.144 C0.37,12.9896667 0.108,12.4773333 0.262333333,11.9996667 C0.417,11.5216667 0.93,11.2626667 1.40666667,11.414 C7.61833333,13.421 14.487,13.4676667 20.7246667,11.5466667 C21.202,11.4 21.7133333,11.668 21.8606667,12.1476667 C22.0086667,12.6276667 21.7393333,13.1356667 21.2593333,13.2836667 C18.0383333,14.276 14.6793333,14.779 11.2753333,14.779 C7.71333333,14.779 4.205,14.2286667 0.847666667,13.144 Z" id="Fill-6"></path>
                <path d="M5.20133333,21.9206667 C5.11066667,21.9206667 5.01933333,21.9003333 4.93266667,21.8573333 C4.633,21.7086667 4.51033333,21.3453333 4.659,21.0453333 L9.07333333,13.796 C9.175,13.5903333 9.38566667,13.4596667 9.61566667,13.4596667 L12.2523333,13.4596667 C12.4806667,13.4596667 12.6896667,13.588 12.793,13.792 L17.297,21.0413333 C17.448,21.34 17.3283333,21.7046667 17.0296667,21.8553333 C16.73,22.007 16.367,21.8866667 16.2153333,21.588 L11.8796667,14.6713333 L9.99133333,14.6713333 L5.74433333,21.584 C5.639,21.797 5.42433333,21.9206667 5.20133333,21.9206667" id="Fill-7"></path>
                <path d="M10.979,22.9706667 C5.42533333,22.9706667 4.596,21.933 4.596,21.3146667 C4.596,20.6963333 5.42533333,19.6586667 10.979,19.6586667 C16.5323333,19.6586667 17.362,20.6963333 17.362,21.3146667 C17.362,21.933 16.5323333,22.9706667 10.979,22.9706667 L10.979,22.9706667 Z M6.32966667,21.3146667 C7.143,21.5316667 8.71633333,21.759 10.979,21.759 C13.2416667,21.759 14.815,21.5316667 15.6283333,21.3146667 C14.815,21.0976667 13.2416667,20.8703333 10.979,20.8703333 C8.71633333,20.8703333 7.143,21.0976667 6.32966667,21.3146667 L6.32966667,21.3146667 Z" id="Fill-8"></path>
            </g>
        </g>
    </g>
</svg>